# xmcd
#
# Track frame offsets: 
#        150
#        11965
#        25592
#        42197
#        56775
#        72302
#        82930
#        95767
#        110830
#        122195
#
# Disc length: 1810 seconds
#
# Revision: 1
# Processed by: cddbd v1.5.2PL0 Copyright (c) Steve Scherf et al.
# Submitted via: ExactAudioCopy v1.0b3
#
DISCID=8807100a
DTITLE=Z.Z. Hill - Faithful and True
DYEAR=1991
DGENRE=Blues
TTITLE0=Faithful And True
TTITLE1=Early In The Morning
TTITLE2=Second Chance
TTITLE3=Hold Back
TTITLE4=Ain't No Use
TTITLE5=I Think I'd Do It
TTITLE6=Our Love Is Getting Better
TTITLE7=A Man Needs A Woman
TTITLE8=Ha Ha (Laughing Song)
TTITLE9=Chokin' Kind
EXTD=
EXTT0=
EXTT1=
EXTT2=
EXTT3=
EXTT4=
EXTT5=
EXTT6=
EXTT7=
EXTT8=
EXTT9=
PLAYORDER=
